<svg viewBox="0 0 820 180" xmlns="http://www.w3.org/2000/svg">
  <defs>
    <linearGradient id="bgHD" x1="0%" y1="0%" x2="100%" y2="100%">
      <stop offset="0%" style="stop-color:#0A0E1A;stop-opacity:1"/>
      <stop offset="100%" style="stop-color:#111827;stop-opacity:1"/>
    </linearGradient>
    <linearGradient id="tGH" x1="0%" y1="0%" x2="100%" y2="100%">
      <stop offset="0%" style="stop-color:#00D4C8;stop-opacity:1"/>
      <stop offset="100%" style="stop-color:#0099A8;stop-opacity:1"/>
    </linearGradient>
  </defs>
  <rect width="820" height="180" rx="20" fill="url(#bgHD)"/>
  <g transform="translate(10,10) scale(0.3125)">
    <path d="M66,256 Q256,100 446,256 Q256,412 66,256 Z" fill="none" stroke="#00D4C8" stroke-width="6" opacity="0.9"/>
    <circle cx="256" cy="256" r="72" fill="none" stroke="#00D4C8" stroke-width="5" opacity="0.7"/>
    <circle cx="256" cy="256" r="32" fill="#00D4C8" opacity="0.15"/>
    <circle cx="256" cy="256" r="14" fill="#00D4C8" opacity="0.9"/>
    <line x1="66" y1="256" x2="446" y2="256" stroke="#00D4C8" stroke-width="1" opacity="0.2"/>
    <g stroke="#00D4C8" stroke-width="3" fill="none" opacity="0.5">
      <path d="M96,140 L96,108 L128,108"/>
      <path d="M416,140 L416,108 L384,108"/>
      <path d="M96,372 L96,404 L128,404"/>
      <path d="M416,372 L416,404 L384,404"/>
    </g>
    <rect x="196" y="218" width="120" height="28" rx="6" fill="url(#tGH)"/>
    <rect x="242" y="218" width="28" height="90" rx="6" fill="url(#tGH)"/>
    <ellipse cx="300" cy="230" rx="10" ry="5" fill="white" opacity="0.15" transform="rotate(-25 300 230)"/>
  </g>
  <text x="186" y="118" font-family="'Helvetica Neue',Helvetica,Arial,sans-serif" font-weight="800" font-size="78" letter-spacing="-3" fill="#00D4C8">trackt</text>
</svg>